<?xml version="1.0" encoding="utf-8"?>
<!-- Generator: Adobe Illustrator 16.0.3, SVG Export Plug-In . SVG Version: 6.00 Build 0)  -->
<!DOCTYPE svg PUBLIC "-//W3C//DTD SVG 1.1//EN" "http://www.w3.org/Graphics/SVG/1.1/DTD/svg11.dtd">
<svg version="1.1" id="Layer_1" xmlns="http://www.w3.org/2000/svg" xmlns:xlink="http://www.w3.org/1999/xlink" x="0px" y="0px"
	 width="612px" height="792px" viewBox="0 0 612 792" enable-background="new 0 0 612 792" xml:space="preserve">
<path d="M302.845,70.902h-3.446c0.02,0.098,0.046,0.195,0.06,0.294c1.148-0.066,2.296-0.147,3.443-0.229
	C302.883,70.946,302.864,70.924,302.845,70.902z"/>
<path d="M452.313,79.304c0.803,1.071,1.131,2.476,0.984,3.823v0.004h1.011L595.105,327L454.309,570.87h-2.7
	c3.698,3.276,6.751,7.74,10.448,11.073L609.23,327L463.146,73.962l-1.763-3.06h-5.222c-0.282,1.114-0.915,2.121-1.887,2.785
	c0.268,1.886-0.404,3.925-2.015,5.016C452.288,78.901,452.306,79.102,452.313,79.304C452.313,79.303,452.313,79.303,452.313,79.304z
	"/>
<text transform="matrix(1 0 0 1 7.5 816.6016)" font-family="'Arial-BoldMT'" font-size="61.2">Created by Mohamed Mb</text>
<text transform="matrix(1 0 0 1 7.5 877.7969)" font-family="'Arial-BoldMT'" font-size="61.2">from the Noun Project</text>
</svg>
