<svg xmlns:dc="http://purl.org/dc/elements/1.1/" xmlns:cc="http://creativecommons.org/ns#" xmlns:rdf="http://www.w3.org/1999/02/22-rdf-syntax-ns#" xmlns:svg="http://www.w3.org/2000/svg" xmlns="http://www.w3.org/2000/svg" xmlns:sodipodi="http://sodipodi.sourceforge.net/DTD/sodipodi-0.dtd" xmlns:inkscape="http://www.inkscape.org/namespaces/inkscape" version="1.1" x="0px" y="0px" viewBox="0 0 100 125"><g transform="translate(0,-952.36218)"><path style="text-indent:0;text-transform:none;direction:ltr;block-progression:tb;baseline-shift:baseline;color:#000000;enable-background:accumulate;" d="m 50.020712,975.36215 c -7.9168,0 -14.3809,5.2263 -15.9481,11.5 -0.3058,1.0318 0.3888,2.2481 1.433,2.509 1.0441,0.2608 2.2293,-0.4859 2.4446,-1.5403 1.0428,-4.1751 5.9711,-8.4687 12.0705,-8.4687 3.0195,0 6.1338,1.0869 8.3805,2.9062 2.2466,1.8195 3.5962,4.2605 3.5962,7.0938 0,3.4389 -0.7493,5.1714 -1.7825,6.5 -1.0335,1.3286 -2.5196,2.32 -4.3466,3.625 -1.8271,1.30495 -3.901,2.97945 -5.4099,5.78125 -1.5088,2.8018 -2.4391,6.6215 -2.4391,12.0937 0,1.0479 0.9534,2.0013 2.0014,2.0013 1.0479,0 2.0013,-0.9534 2.0013,-2.0013 0,-5.0278 0.8224,-8.1144 1.9388,-10.1875 1.1163,-2.0731 2.5484,-3.2425 4.2214,-4.4374 1.6732,-1.1951 3.6306,-2.36 5.2223,-4.40635 1.5917,-2.0464 2.5955,-4.9076 2.5955,-8.9687 0,-4.1667 -2.127,-7.7568 -5.1284,-10.1875 -3.0018,-2.4307 -6.878,-3.8125 -10.8509,-3.8125 z m 0,48.00005 c -1.6581,0 -3.0021,1.3431 -3.0021,3 0,1.6569 1.344,3 3.0021,3 1.658,0 3.0019,-1.3431 3.0019,-3 0,-1.6569 -1.3439,-3 -3.0019,-3 z" fill="#ffffff" fill-opacity="1" stroke="none" marker="none" visibility="visible" display="inline" overflow="visible"/></g></svg>