<svg xmlns:x="http://ns.adobe.com/Extensibility/1.0/" fill="#ffffff" xmlns:i="http://ns.adobe.com/AdobeIllustrator/10.0/" xmlns:graph="http://ns.adobe.com/Graphs/1.0/" xmlns="http://www.w3.org/2000/svg" xmlns:xlink="http://www.w3.org/1999/xlink" version="1.1" x="0px" y="0px" viewBox="0 0 100 125" enable-background="new 0 0 100 100" xml:space="preserve"><metadata><sfw xmlns="http://ns.adobe.com/SaveForWeb/1.0/"><slices/><sliceSourceBounds width="1447.2" height="1444.2" x="1" y="-1446.1" bottomLeftOrigin="true"/></sfw></metadata><path d="M13.5,95.9h73.1c5.6,0,10.1-4.5,10.1-10.1v-16c0-5.6-4.5-10.1-10.1-10.1H66.4c-2.1,0-3.9,1.6-4.1,3.8  c-0.6,6.3-5.9,11-12.2,11s-11.6-4.7-12.2-11c-0.2-2.1-2-3.8-4.1-3.8H13.5c-5.6,0-10.1,4.5-10.1,10.1v16C3.3,91.3,7.9,95.9,13.5,95.9  z M8.3,69.8c0-2.8,2.3-5.1,5.1-5.1h19.4c1.2,8.5,8.5,14.8,17.1,14.8s15.9-6.3,17.1-14.8h19.4c2.8,0,5.1,2.3,5.1,5.1v16  c0,2.8-2.3,5.1-5.1,5.1H13.5c-2.8,0-5.1-2.3-5.1-5.1V69.8z M52.5,6.6v39.5l11-11c1-1,2.6-1,3.5,0c1,1,1,2.6,0,3.5L51.8,53.9  c-0.5,0.5-1.1,0.7-1.8,0.7s-1.3-0.2-1.8-0.7L33,38.6c-1-1-1-2.6,0-3.5c1-1,2.6-1,3.5,0l11,11V6.6c0-1.4,1.1-2.5,2.5-2.5  S52.5,5.2,52.5,6.6z"/></svg>