<svg xmlns="http://www.w3.org/2000/svg" xmlns:xlink="http://www.w3.org/1999/xlink" version="1.1" fill="#ffffff" x="0px" y="0px" viewBox="0 0 512 640" enable-background="new 0 0 512 512" xml:space="preserve"><g><path d="M384.188,256.469c-2.844,0-5.656,0.125-8.438,0.312l-9.516,0.625l3.922-8.703c4.188-9.266,7.844-18.906,10.859-28.656   C388,197.5,391.922,173.422,392.688,148.5c0.594-20.422-2.844-40.281-10.219-59.062c-7.078-17.969-17.438-34.078-30.781-47.891   C325.828,14.859,291.906,0.094,256.156,0c-36.062,0.094-69.984,14.859-95.844,41.547c-13.344,13.812-23.703,29.922-30.781,47.891   c-7.375,18.781-10.812,38.641-10.219,59.062c0.766,24.922,4.688,49,11.672,71.547c5.781,18.719,13.719,36.547,23.578,52.953   l2.219,3.641c3.125,4.984,6.438,9.875,9.875,14.531c9.188,16.391,11.594,29.922,7.172,38.734   c-3.094,6.125-15.266,19.094-61.969,37.062c-13.172,5.062-35.078,12.781-64.672,20.797l-2.031,0.594   c-26.938,9.016-45.031,34.234-45.031,62.734V512h384.062c70.406,0,127.688-57.312,127.688-127.75   C511.875,313.797,454.594,256.469,384.188,256.469z M18.328,493.781v-42.688c0-20.5,12.984-38.734,32.297-45.359   c31.594-8.578,54.156-16.547,67.766-21.781c17.203-6.609,31.641-13.281,42.844-19.797c14.969-8.734,24.406-17.25,28.844-26.047   c7.453-14.812,4.797-34.203-7.641-56.109c-3.656-5.031-6.625-9.328-9.406-13.703l-0.859-1.375   c-21.672-34.672-33.328-74.703-34.641-118.969c-0.547-17.922,2.469-35.359,8.938-51.828c6.203-15.75,15.25-29.844,26.906-41.875   c22.406-23.156,51.688-35.938,82.484-36.031c31.078,0.094,60.359,12.875,82.766,36.031c11.656,12.031,20.703,26.125,26.906,41.875   c6.469,16.469,9.484,33.906,8.938,51.828c-1.25,42.094-11.891,80.438-31.625,113.969l-1.031,1.766l-1.906,0.688   C290,282.844,256.5,331.016,256.5,384.25c0,38.75,17.281,74.953,47.438,99.344l12.578,10.188H18.328z M461.594,461.688   c-20.672,20.703-48.156,32.094-77.406,32.094s-56.75-11.391-77.438-32.094c-20.672-20.672-32.062-48.188-32.062-77.438   c0-29.281,11.391-56.781,32.062-77.469c20.688-20.688,48.188-32.062,77.438-32.062s56.734,11.375,77.406,32.062   c20.688,20.688,32.078,48.188,32.078,77.469C493.672,413.5,482.281,441.016,461.594,461.688z"/><path d="M429.484,378.828h-35.578v-35.609c0-5.031-4.094-9.109-9.109-9.109s-9.109,4.078-9.109,9.109v35.609h-35.578   c-5.016,0-9.109,4.094-9.109,9.109c0,5.031,4.094,9.125,9.109,9.125h35.578v35.594c0,5.031,4.094,9.109,9.109,9.109   s9.109-4.078,9.109-9.109v-35.594h35.578c5.016,0,9.109-4.094,9.109-9.125C438.594,382.922,434.5,378.828,429.484,378.828z"/></g></svg>