<svg xmlns="http://www.w3.org/2000/svg" xmlns:xlink="http://www.w3.org/1999/xlink" version="1.1" x="0px" y="0px" viewBox="0 0 48 60" enable-background="new 0 0 48 48" xml:space="preserve"><path fill="#ffffff" d="M37.247,30.242c-0.642-0.993-1.484-5.469-1.903-9.299  c-1.009-8.16-4.892-11.124-7.815-12.193V8.074c0-1.944-1.583-3.526-3.528-3.526c-1.945,0-3.528,1.582-3.528,3.526V8.75  c-2.924,1.07-6.808,4.036-7.82,12.202c-0.441,3.844-1.313,8.353-1.945,9.306c-1.854,0.561-3.168,2.303-3.168,4.263  c0,2.453,1.995,4.448,4.448,4.448h7.948c-0.011,0.126-0.042,0.247-0.042,0.376c0,2.266,1.843,4.108,4.108,4.108  c2.266,0,4.109-1.843,4.109-4.108c0-0.128-0.031-0.25-0.043-0.376h7.947c2.452,0,4.447-1.995,4.447-4.448  C40.461,32.533,39.129,30.786,37.247,30.242z M22.472,8.074c0-0.841,0.686-1.526,1.528-1.526c0.842,0,1.528,0.685,1.528,1.526v0.162  c-0.099-0.014-0.18-0.018-0.271-0.027c-0.055-0.006-0.105-0.011-0.157-0.016c-0.112-0.01-0.221-0.02-0.321-0.025  c-0.151-0.009-0.28-0.012-0.383-0.013c-0.008,0-0.019-0.001-0.026-0.001c-0.037,0-0.061,0.001-0.094,0.002  c-0.053,0-0.104,0.001-0.146,0.003c-0.03,0.001-0.05,0.002-0.075,0.003C24.038,8.163,24.015,8.163,24,8.164  c-0.059-0.004-0.151-0.007-0.257-0.009c-0.332-0.015-0.741,0.007-1.271,0.08V8.074z M26.077,38.971  c0.021,0.122,0.032,0.247,0.032,0.374c0,1.162-0.946,2.108-2.109,2.108s-2.108-0.946-2.108-2.108c0-0.128,0.011-0.253,0.032-0.376  L26.077,38.971z M36.014,36.969H21.211h0h-9.224c-1.35,0-2.448-1.099-2.448-2.448c0-1.14,0.807-2.146,1.919-2.393  c0.147-0.033,0.285-0.099,0.403-0.192c1.533-1.212,2.454-7.926,2.777-10.747c0.958-7.732,4.577-10.076,7.063-10.762  c0.012-0.003,0.025,0.002,0.037-0.001c0.28-0.078,0.538-0.132,0.774-0.173c0.046-0.007,0.094-0.016,0.14-0.022  c0.067-0.01,0.132-0.02,0.195-0.027c0.308-0.035,0.578-0.048,0.787-0.048c0.154,0,0.249,0.007,0.264,0.008  c0.064,0.007,0.133,0.006,0.198,0.001c0.02-0.002,0.115-0.009,0.269-0.009c0.207,0,0.474,0.013,0.778,0.048  c0.063,0.007,0.127,0.016,0.194,0.026c0.043,0.006,0.09,0.015,0.135,0.021c0.24,0.041,0.503,0.096,0.789,0.175  c0.024,0.007,0.049,0.005,0.072,0.01c2.485,0.698,6.073,3.057,7.023,10.74c0.31,2.828,1.194,9.536,2.732,10.75  c0.122,0.097,0.265,0.163,0.418,0.194c1.132,0.233,1.953,1.243,1.953,2.402C38.461,35.87,37.363,36.969,36.014,36.969z"/></svg>