<?xml version="1.0" encoding="utf-8"?>
<!-- Generator: Adobe Illustrator 16.0.3, SVG Export Plug-In . SVG Version: 6.00 Build 0)  -->
<!DOCTYPE svg PUBLIC "-//W3C//DTD SVG 1.1//EN" "http://www.w3.org/Graphics/SVG/1.1/DTD/svg11.dtd">
<svg version="1.1" id="Layer_1" xmlns="http://www.w3.org/2000/svg" xmlns:xlink="http://www.w3.org/1999/xlink" x="0px" y="0px"
	 width="612px" height="792px" viewBox="0 0 612 792" enable-background="new 0 0 612 792" xml:space="preserve">
<path d="M174.5,573.5c0.037-1.049,0.337-1.923,0.807-2.63h-2.591L31.907,327L172.715,83.13h0.987
	c-0.188-1.713,0.393-3.523,1.741-4.615c-1.618-3.3-3.816-6.18-7.272-7.194c-0.379-0.111-0.725-0.253-1.039-0.419h-1.491L17.77,327
	l147.871,256.109h6.925C173.502,579.971,174.384,576.828,174.5,573.5z"/>
<text transform="matrix(1 0 0 1 7.5 816.6016)" font-family="'Arial-BoldMT'" font-size="61.2">Created by Mohamed Mb</text>
<text transform="matrix(1 0 0 1 7.5 877.7969)" font-family="'Arial-BoldMT'" font-size="61.2">from the Noun Project</text>
</svg>
